<?xml version="1.0" encoding="utf-8"?>
<!-- Generator: Adobe Illustrator 26.4.1, SVG Export Plug-In . SVG Version: 6.00 Build 0)  -->
<svg version="1.1" id="Layer_1" xmlns="http://www.w3.org/2000/svg" xmlns:xlink="http://www.w3.org/1999/xlink" x="0px" y="0px"
	 viewBox="0 0 89.5 89.5" style="enable-background:new 0 0 89.5 89.5;" xml:space="preserve">
<style type="text/css">
	.st0{fill-rule:evenodd;clip-rule:evenodd;fill:url(#SVGID_1_);}
	.st1{fill:#FFFFFF;}
</style>
<g>
	
		<radialGradient id="SVGID_1_" cx="-899.2643" cy="-23.1178" r="0.1749" gradientTransform="matrix(512 0 0 512 460423.3125 11881.0938)" gradientUnits="userSpaceOnUse">
		<stop  offset="0" style="stop-color:#5D9DF6"/>
		<stop  offset="1" style="stop-color:#006FFF"/>
	</radialGradient>
	<path class="st0" d="M44.8,0c24.7,0,44.8,20,44.8,44.8s-20,44.8-44.8,44.8S0,69.5,0,44.8S20,0,44.8,0z"/>
	<path class="st1" d="M28.5,34.6c9-8.8,23.6-8.8,32.6,0l1.1,1.1c0.5,0.4,0.5,1.2,0,1.6l-3.7,3.6c-0.2,0.2-0.6,0.2-0.8,0l-1.5-1.5
		c-6.3-6.1-16.5-6.1-22.8,0L31.8,41c-0.2,0.2-0.6,0.2-0.8,0l-3.7-3.6c-0.5-0.4-0.5-1.2,0-1.6L28.5,34.6z M68.8,42.1l3.3,3.2
		c0.5,0.4,0.5,1.2,0,1.6L57.2,61.4c-0.5,0.4-1.2,0.4-1.6,0l0,0L45,51.1c-0.1-0.1-0.3-0.1-0.4,0l0,0L34,61.4c-0.5,0.4-1.2,0.4-1.6,0
		l0,0L17.5,46.9c-0.5-0.4-0.5-1.2,0-1.6l3.3-3.2c0.5-0.4,1.2-0.4,1.6,0L33,52.4c0.1,0.1,0.3,0.1,0.4,0l0,0l10.6-10.3
		c0.5-0.4,1.2-0.4,1.6,0l0,0l10.6,10.3c0.1,0.1,0.3,0.1,0.4,0l10.6-10.3C67.6,41.6,68.3,41.6,68.8,42.1L68.8,42.1z"/>
</g>
</svg>
